<svg id="Layer_1" data-name="Layer 1" xmlns="http://www.w3.org/2000/svg" viewBox="0 0 465.57 339.17"><defs><style>.cls-1{fill:#ca9e67;}</style></defs><path class="cls-1" d="M188.23,184.67H149.89v50.39H130.17V184.67H22V170.43L123.59,43.35H145.5l-98,123.79h83.25V122.77h19.18v44.37h38.34Z"/><path class="cls-1" d="M286.28,145.87l-65.5-39.32L286.28,11Z"/><path class="cls-1" d="M361.32,106.5,296.2,145.74v-134Z"/><path class="cls-1" d="M358.46,154.93c-16.7,10-32.87,19.74-49,29.44-5.52,3.32-11,6.7-16.6,9.85a4.43,4.43,0,0,1-3.83.2q-32.48-19.29-64.82-38.84a4.56,4.56,0,0,1-.63-.57c9.35-5.61,18.62-11.23,28-16.67.78-.46,2.29-.06,3.2.48,10.8,6.37,21.59,12.75,32.27,19.34,3,1.82,5.32,1.74,8.28-.1,10.57-6.57,21.28-12.87,32-19.15a4.18,4.18,0,0,1,3.59-.41C339.92,143.74,348.88,149.19,358.46,154.93Z"/><path class="cls-1" d="M351.06,171.81,296.2,251.76l-.63-.23V237.19c0-9.92-.06-19.83.07-29.74,0-1.28.75-3.16,1.68-3.73,17.37-10.6,34.82-21,52.26-31.5A8.83,8.83,0,0,1,351.06,171.81Z"/><path class="cls-1" d="M285.46,251.08,231.29,172c1.47.69,2.19.95,2.85,1.35q24.8,14.94,49.56,30c1.05.64,2.3,2.18,2.31,3.32.16,14.72.11,29.44.11,44.15Z"/><path class="cls-1" d="M425.38,65.65,389.49,76.8l-5.17-17.41,46.5-16H446.6V235.06H425.38Z"/><path class="cls-1" d="M37.82,325.23Q35,322.29,35,316.64V301.25h2v15.31c0,3.29.75,5.74,2.25,7.37a8.44,8.44,0,0,0,6.53,2.45,8.38,8.38,0,0,0,6.49-2.45c1.5-1.63,2.25-4.08,2.25-7.37V301.25h2v15.39q0,5.66-2.82,8.59c-1.89,2-4.52,2.94-7.91,2.94S39.69,327.19,37.82,325.23Z"/><path class="cls-1" d="M94.92,301.25V328H93.31L75.1,304.77V328H73.15V301.25H74.8L93,324.47V301.25Z"/><path class="cls-1" d="M128.4,320.46H112.9L109.5,328h-2.1l12.3-26.73h1.94L133.94,328h-2.1Zm-.73-1.64-7-15.43-7,15.43Z"/><path class="cls-1" d="M148.42,325.23q-2.8-2.94-2.8-8.59V301.25h1.95v15.31c0,3.29.75,5.74,2.25,7.37a9.87,9.87,0,0,0,13,0c1.5-1.63,2.25-4.08,2.25-7.37V301.25H167v15.39q0,5.66-2.83,8.59c-1.88,2-4.52,2.94-7.9,2.94S150.3,327.19,148.42,325.23Z"/><path class="cls-1" d="M188.34,303h-9.62v-1.76h21.19V303h-9.62v25h-1.95Z"/><path class="cls-1" d="M234.12,301.25V328h-2V315.27H214.3V328h-1.94V301.25h1.94v12.3h17.87v-12.3Z"/><path class="cls-1" d="M255.31,326.39a13,13,0,0,1-5-4.86,14,14,0,0,1,0-13.82,13,13,0,0,1,5-4.87,14.2,14.2,0,0,1,7.1-1.78,14.4,14.4,0,0,1,7.1,1.76,13,13,0,0,1,5,4.85,14.16,14.16,0,0,1,0,13.89,12.9,12.9,0,0,1-5,4.85,14.4,14.4,0,0,1-7.1,1.76A14.2,14.2,0,0,1,255.31,326.39Zm13.17-1.54a11.33,11.33,0,0,0,4.28-4.22,12.38,12.38,0,0,0,0-12,11.33,11.33,0,0,0-4.28-4.22,12.92,12.92,0,0,0-12.16,0,11.32,11.32,0,0,0-4.3,4.22,12.38,12.38,0,0,0,0,12,11.32,11.32,0,0,0,4.3,4.22,12.85,12.85,0,0,0,12.16,0Z"/><path class="cls-1" d="M309.26,328,302.88,319a19.17,19.17,0,0,1-2.6.2h-7.63V328H290.7V301.25h9.58q5,0,7.91,2.39a8.14,8.14,0,0,1,2.86,6.62,8.13,8.13,0,0,1-6.26,8.36l6.68,9.36Zm-9-10.46q4.28,0,6.53-1.89a7.5,7.5,0,0,0,0-10.73q-2.25-1.89-6.53-1.89h-7.63v14.51Z"/><path class="cls-1" d="M325.83,301.25h1.94V328h-1.94Z"/><path class="cls-1" d="M346.16,327.16a10.93,10.93,0,0,1-4.15-2.62l.88-1.45a10.47,10.47,0,0,0,3.8,2.43,13.72,13.72,0,0,0,5,.93,9.57,9.57,0,0,0,5.77-1.45,4.52,4.52,0,0,0,1.94-3.78,3.92,3.92,0,0,0-1-2.86,6.76,6.76,0,0,0-2.56-1.64,33.48,33.48,0,0,0-4.12-1.19,38.91,38.91,0,0,1-4.71-1.41,7.58,7.58,0,0,1-3-2.12,5.63,5.63,0,0,1-1.24-3.84,6.54,6.54,0,0,1,1-3.57,7,7,0,0,1,3.15-2.57,12.8,12.8,0,0,1,5.29-1,15,15,0,0,1,4.35.65,12.57,12.57,0,0,1,3.7,1.76l-.72,1.56a12.34,12.34,0,0,0-3.53-1.68,13.42,13.42,0,0,0-3.8-.57,9,9,0,0,0-5.61,1.49,4.65,4.65,0,0,0-1.91,3.86,3.94,3.94,0,0,0,1,2.86,6.8,6.8,0,0,0,2.55,1.64,38.79,38.79,0,0,0,4.17,1.22,39.47,39.47,0,0,1,4.69,1.42,7.66,7.66,0,0,1,3,2.08,5.43,5.43,0,0,1,1.24,3.76,6.36,6.36,0,0,1-1.05,3.55,7.13,7.13,0,0,1-3.23,2.56,13.39,13.39,0,0,1-5.34.95A15.61,15.61,0,0,1,346.16,327.16Z"/><path class="cls-1" d="M394.05,326.22V328H375.61V301.25h17.87V303H377.56v10.54H391.8v1.72H377.56v11Z"/><path class="cls-1" d="M408.79,301.25h10.58a15.52,15.52,0,0,1,7.38,1.72,12.57,12.57,0,0,1,5,4.75,14.11,14.11,0,0,1,0,13.79,12.5,12.5,0,0,1-5,4.75,15.4,15.4,0,0,1-7.38,1.72H408.79Zm10.42,25a13.94,13.94,0,0,0,6.53-1.47,10.51,10.51,0,0,0,4.35-4.1,12.67,12.67,0,0,0,0-12.07,10.51,10.51,0,0,0-4.35-4.1,13.94,13.94,0,0,0-6.53-1.47h-8.47v23.21Z"/></svg>