<svg id="Layer_1" data-name="Layer 1" xmlns="http://www.w3.org/2000/svg" viewBox="0 0 560.87 339.17"><defs><style>.cls-1{fill:#ca9e67;}</style></defs><path class="cls-1" d="M71.86,303.64a9.06,9.06,0,0,1,0,13.21Q69,319.24,64,319.24H56.32V328h-2V301.25H64Q69,301.25,71.86,303.64Zm-1.38,12a7.47,7.47,0,0,0,0-10.71Q68.23,303,64,303H56.32v14.47H64Q68.24,317.48,70.48,315.61Z"/><path class="cls-1" d="M104.12,320.46H88.62L85.22,328h-2.1l12.3-26.73h1.94L109.66,328h-2.1Zm-.72-1.64-7-15.43-7,15.43Z"/><path class="cls-1" d="M140.85,314.73h1.87v10a11.56,11.56,0,0,1-4.26,2.56,15.69,15.69,0,0,1-5.28.88,14.58,14.58,0,0,1-7.16-1.76,12.75,12.75,0,0,1-5-4.85,14.16,14.16,0,0,1,0-13.89,12.81,12.81,0,0,1,5-4.85,14.64,14.64,0,0,1,7.19-1.76,15,15,0,0,1,5.41.94,11.44,11.44,0,0,1,4.21,2.73l-1.22,1.3a10.13,10.13,0,0,0-3.76-2.43,13.49,13.49,0,0,0-4.6-.74,12.68,12.68,0,0,0-6.2,1.52,11.21,11.21,0,0,0-4.34,4.22,11.8,11.8,0,0,0-1.56,6,11.58,11.58,0,0,0,1.58,6,11.4,11.4,0,0,0,4.34,4.24,12.38,12.38,0,0,0,6.18,1.55,11.67,11.67,0,0,0,7.6-2.45Z"/><path class="cls-1" d="M177.35,326.22V328H158.91V301.25h17.87V303H160.86v10.54H175.1v1.72H160.86v11Z"/><path class="cls-1" d="M231.3,301.25V328h-1.61l-18.21-23.21V328h-1.95V301.25h1.65l18.17,23.22V301.25Z"/><path class="cls-1" d="M252.49,326.39a13,13,0,0,1-5-4.86,14.1,14.1,0,0,1,0-13.82,13,13,0,0,1,5-4.87,14.18,14.18,0,0,1,7.1-1.78,14.4,14.4,0,0,1,7.1,1.76,13,13,0,0,1,5,4.85,14.23,14.23,0,0,1,0,13.89,12.9,12.9,0,0,1-5,4.85,14.4,14.4,0,0,1-7.1,1.76A14.18,14.18,0,0,1,252.49,326.39Zm13.17-1.54a11.31,11.31,0,0,0,4.27-4.22,12.31,12.31,0,0,0,0-12,11.31,11.31,0,0,0-4.27-4.22,12.92,12.92,0,0,0-12.16,0,11.32,11.32,0,0,0-4.3,4.22,12.38,12.38,0,0,0,0,12,11.32,11.32,0,0,0,4.3,4.22,12.85,12.85,0,0,0,12.16,0Z"/><path class="cls-1" d="M292.61,303H283v-1.76h21.19V303h-9.62v25h-1.95Z"/><path class="cls-1" d="M336,303v11.42h14.24v1.75H336V328h-1.95V301.25h17.87V303Z"/><path class="cls-1" d="M369.7,326.39a13,13,0,0,1-5-4.86,14.1,14.1,0,0,1,0-13.82,13,13,0,0,1,5-4.87,14.2,14.2,0,0,1,7.1-1.78,14.4,14.4,0,0,1,7.1,1.76,13,13,0,0,1,5,4.85,14.16,14.16,0,0,1,0,13.89,12.9,12.9,0,0,1-5,4.85,14.4,14.4,0,0,1-7.1,1.76A14.2,14.2,0,0,1,369.7,326.39Zm13.17-1.54a11.24,11.24,0,0,0,4.27-4.22,12.31,12.31,0,0,0,0-12,11.24,11.24,0,0,0-4.27-4.22,12.92,12.92,0,0,0-12.16,0,11.32,11.32,0,0,0-4.3,4.22,12.38,12.38,0,0,0,0,12,11.32,11.32,0,0,0,4.3,4.22,12.85,12.85,0,0,0,12.16,0Z"/><path class="cls-1" d="M407.67,325.23q-2.81-2.94-2.81-8.59V301.25h1.95v15.31c0,3.29.75,5.74,2.25,7.37a9.87,9.87,0,0,0,13,0c1.5-1.63,2.25-4.08,2.25-7.37V301.25h1.95v15.39q0,5.66-2.83,8.59t-7.9,2.94Q410.48,328.17,407.67,325.23Z"/><path class="cls-1" d="M464.76,301.25V328h-1.6L445,304.77V328H443V301.25h1.64l18.18,23.22V301.25Z"/><path class="cls-1" d="M481.72,301.25h10.57a15.53,15.53,0,0,1,7.39,1.72,12.63,12.63,0,0,1,5,4.75,14.17,14.17,0,0,1,0,13.79,12.56,12.56,0,0,1-5,4.75,15.41,15.41,0,0,1-7.39,1.72H481.72Zm10.42,25a14,14,0,0,0,6.53-1.47,10.57,10.57,0,0,0,4.35-4.1,12.67,12.67,0,0,0,0-12.07,10.57,10.57,0,0,0-4.35-4.1,14,14,0,0,0-6.53-1.47h-8.48v23.21Z"/><path class="cls-1" d="M182.39,184.67H144v50.39H124.33V184.67H16.14V170.43L117.75,43.35h21.91l-98,123.79h83.26V122.77H144v44.37h38.35Z"/><path class="cls-1" d="M544.72,184.67H506.38v50.39H486.66V184.67H378.48V170.43L480.09,43.35H502L404,167.14h83.26V122.77h19.17v44.37h38.34Z"/><path class="cls-1" d="M280.43,145.87l-65.49-39.32L280.43,11Z"/><path class="cls-1" d="M355.48,106.5l-65.12,39.24v-134Z"/><path class="cls-1" d="M352.62,154.93l-49.05,29.44c-5.52,3.32-11,6.7-16.61,9.85a4.4,4.4,0,0,1-3.82.2q-32.47-19.29-64.82-38.84a4.56,4.56,0,0,1-.63-.57c9.35-5.61,18.62-11.23,28-16.67.79-.46,2.3-.06,3.21.48,10.79,6.37,21.59,12.75,32.27,19.34,3,1.82,5.32,1.74,8.28-.1,10.57-6.57,21.28-12.87,32-19.15a4.18,4.18,0,0,1,3.59-.41C334.07,143.74,343,149.19,352.62,154.93Z"/><path class="cls-1" d="M345.22,171.81c-18.51,27-36.69,53.46-54.86,79.95l-.64-.23V237.19c0-9.92-.06-19.83.08-29.74,0-1.28.75-3.16,1.68-3.73,17.37-10.6,34.82-21,52.26-31.5A8.52,8.52,0,0,1,345.22,171.81Z"/><path class="cls-1" d="M279.62,251.08,225.45,172c1.47.69,2.19.95,2.84,1.35q24.81,14.94,49.57,30c1.05.64,2.3,2.18,2.31,3.32.16,14.72.11,29.44.11,44.15Z"/></svg>