<svg id="Layer_1" data-name="Layer 1" xmlns="http://www.w3.org/2000/svg" viewBox="0 0 31.24 31.27"><defs><style>.cls-1{fill:#ca9e67;}</style></defs><path class="cls-1" d="M31.24,15.68A15.62,15.62,0,1,1,15.68,0,15.71,15.71,0,0,1,31.24,15.68Zm-5.46,9.49a14,14,0,1,0-20.36,0,.39.39,0,0,0,.1-.08,8,8,0,0,1,5.17-3.78,19.29,19.29,0,0,1,8.21-.36,10.53,10.53,0,0,1,5,2A7.08,7.08,0,0,1,25.78,25.17ZM15.6,22.33h-.95a12.29,12.29,0,0,0-5.2,1.19,5.61,5.61,0,0,0-2.61,2.57.34.34,0,0,0,.13.53c.46.3.9.64,1.36.93a13.92,13.92,0,0,0,15.75-.81c.48-.37.48-.38.18-.91a5.83,5.83,0,0,0-2.47-2.3A13.21,13.21,0,0,0,15.6,22.33Z"/><path class="cls-1" d="M15.61,18.44a6.7,6.7,0,1,1,6.7-6.7A6.72,6.72,0,0,1,15.61,18.44Zm5.05-6.67a5,5,0,1,0-5.08,5A5,5,0,0,0,20.66,11.77Z"/></svg>