<svg id="Layer_1" data-name="Layer 1" xmlns="http://www.w3.org/2000/svg" xmlns:xlink="http://www.w3.org/1999/xlink" viewBox="0 0 139.23 30.51"><defs><style>.cls-1{fill:none;}.cls-2{clip-path:url(#clip-path);}.cls-3{fill:#ca9e67;}</style><clipPath id="clip-path" transform="translate(0 0)"><rect class="cls-1" width="139.23" height="30.51"/></clipPath></defs><g class="cls-2"><path class="cls-3" d="M37.27,15.24h1.11c2.72,0,5.43,0,8.15,0a1.64,1.64,0,0,1,1.54.8Q53,22.95,57.92,29.81c.2.27.5.62.78.64,1,.07,2.07,0,3.3,0l-10.65-15a50.15,50.15,0,0,0,5.18-1c2.76-.83,3.95-3,4.12-5.7.18-3-.15-5.79-3.14-7.46A4.39,4.39,0,0,0,56.24.77a20.46,20.46,0,0,0-3.61-.6C47.57.07,42.5.07,37.44,0c-1.6,0-2.12.39-2.63,2.05h4.07c4.38,0,8.75,0,13.11.08,3.26.07,4.93,1.34,5.23,4,.52,4.7-.92,6.84-5.62,6.93-5.37.11-10.73.06-16.09.08H34.25v17.2h3ZM94.37,0a19.32,19.32,0,0,1-2.05,0,3.06,3.06,0,0,0-2.7,1.06Q83.56,6.88,77.39,12.54a2.85,2.85,0,0,1-1.64.64c-1.42.09-2.85,0-4.27,0-.79,0-1-.22-1-1,0-3.63,0-7.26,0-10.89V.12H67.37V13.25c-1.77-.43-2.66.42-3.21,2.05h3.31V30.42h3V15.24c1.82,0,3.53,0,5.24,0a1.93,1.93,0,0,1,1.62.71q6.36,7,12.76,13.87c.23.25.53.61.82.63,1.06.08,2.13,0,3.4,0L79.42,14.13,94.37,0M0,30.48a20.54,20.54,0,0,1,2.09,0,1.3,1.3,0,0,0,1.53-1Q9.38,16.17,15.19,2.84c.13-.3.28-.6.5-1.06l5.85,13.51c-2.54,0-4.87.13-7.17,0-1.61-.12-2.19.77-2.83,2.08h1.17c2.94,0,5.89,0,8.84,0a1.19,1.19,0,0,1,1.31.87q2.48,5.77,5,11.51c.13.29.4.72.64.74.9.09,1.81,0,2.71,0a1.61,1.61,0,0,0,0-.33Q24.8,15.36,18.33.6a1.17,1.17,0,0,0-.88-.53C16.4,0,15.33.11,14.28,0,13.46,0,13.13.3,12.83,1Q7.55,13.2,2.22,25.39L0,30.48M107.93,0c.13.34.18.5.24.64q6.35,14.57,12.68,29.12a1,1,0,0,0,1.11.69,28.58,28.58,0,0,1,3.07,0,1.22,1.22,0,0,0,1.4-.88Q132.61,15.31,138.86,1c.12-.29.22-.59.37-1a17.29,17.29,0,0,1-1.92,0c-.89-.11-1.32.22-1.69,1.06q-5.73,13.32-11.55,26.59c-.14.3-.29.6-.5,1-.74-1.71-1.42-3.25-2.09-4.79q-5-11.46-10-22.94c-.16-.36-.52-.84-.85-.89a18.11,18.11,0,0,0-2.69,0m-4.61.09h-3v30.3h3Z" transform="translate(0 0)"/><path class="cls-3" d="M37.27,15.24V30.4h-3V13.21h1.26c5.36,0,10.72,0,16.09-.08,4.7-.09,6.14-2.23,5.62-6.93-.3-2.7-2-4-5.23-4-4.36-.09-8.74-.06-13.11-.08H34.81c.51-1.66,1-2.06,2.63-2,5.06,0,10.13,0,15.19.13a20.46,20.46,0,0,1,3.61.6,4.39,4.39,0,0,1,1.27.53c3,1.67,3.32,4.49,3.14,7.46-.17,2.72-1.36,4.87-4.12,5.7a50.15,50.15,0,0,1-5.18,1c3.49,4.93,7,9.88,10.65,15-1.23,0-2.27,0-3.3,0-.28,0-.59-.37-.78-.64Q53,22.94,48.07,16a1.64,1.64,0,0,0-1.54-.8c-2.72,0-5.43,0-8.15,0Z" transform="translate(0 0)"/><path class="cls-3" d="M94.37,0l-15,14.09L94.36,30.47c-1.27,0-2.34.05-3.4,0-.29,0-.59-.38-.82-.63q-6.39-6.93-12.76-13.87a1.93,1.93,0,0,0-1.62-.71c-1.71,0-3.42,0-5.24,0V30.42h-3V15.3H64.16c.55-1.63,1.44-2.48,3.21-2.05V.12h3.12V1.33c0,3.63,0,7.26,0,10.89,0,.78.22,1,1,1,1.42-.05,2.85,0,4.27,0a2.85,2.85,0,0,0,1.64-.64Q83.56,6.87,89.62,1.09A3.06,3.06,0,0,1,92.32,0a19.32,19.32,0,0,0,2.05,0" transform="translate(0 0)"/><path class="cls-3" d="M0,30.48l2.22-5.09Q7.53,13.2,12.83,1c.3-.69.63-1,1.45-1,1.05.09,2.12,0,3.17.05a1.14,1.14,0,0,1,.88.53q6.48,14.76,12.9,29.55a1.53,1.53,0,0,1,0,.32c-.9,0-1.81.06-2.71,0-.24,0-.51-.45-.64-.74q-2.53-5.74-5-11.51a1.2,1.2,0,0,0-1.31-.88c-2.95.05-5.9,0-8.84,0H11.54c.64-1.31,1.22-2.2,2.83-2.08,2.3.17,4.63,0,7.17,0L15.69,1.78c-.22.46-.37.76-.5,1.06Q9.4,16.18,3.62,29.52a1.3,1.3,0,0,1-1.53,1,20.54,20.54,0,0,0-2.09,0" transform="translate(0 0)"/><path class="cls-3" d="M107.93,0a18.11,18.11,0,0,1,2.69,0c.33.05.69.53.85.89q5,11.46,10,22.94c.67,1.54,1.35,3.08,2.09,4.79.21-.43.36-.73.49-1q5.81-13.29,11.56-26.59c.37-.84.8-1.17,1.69-1.06a17.29,17.29,0,0,0,1.92,0c-.15.41-.25.71-.37,1q-6.23,14.28-12.43,28.58a1.22,1.22,0,0,1-1.4.88,28.58,28.58,0,0,0-3.07,0,1,1,0,0,1-1.11-.69Q114.54,15.24,108.17.68c-.06-.14-.11-.3-.24-.64" transform="translate(0 0)"/><rect class="cls-3" x="100.34" y="0.13" width="2.98" height="30.3"/></g></svg>