<svg id="Layer_1" data-name="Layer 1" xmlns="http://www.w3.org/2000/svg" viewBox="0 0 57.65 73.51"><defs><style>.cls-1{fill:#706f6f;}</style></defs><path class="cls-1" d="M15.41,7.9A24.13,24.13,0,0,1,16.5,4.51,7.54,7.54,0,0,1,23.5,0c2.92-.07,5.85,0,8.78,0,6,0,8.34,1.82,9.85,7.94,2.7,0,5.51-.11,8.31,0a7.5,7.5,0,0,1,7.2,7.16c.11,2.74-1.11,4.74-3.64,5.54-1.47.46-1.67,1.17-1.72,2.44q-.8,19.54-1.68,39.07a32.45,32.45,0,0,1-.47,5,7.52,7.52,0,0,1-7.3,6.22q-14,.14-27.94,0a7.44,7.44,0,0,1-7.46-7c-.51-4.84-.63-9.72-.85-14.59Q5.94,37.68,5.39,23.46c-.06-1.41-.13-2.36-1.93-2.85C.88,19.9-.31,17.28.07,14.42A7.64,7.64,0,0,1,6.62,8c1.49-.15,3-.09,4.52-.1S14,7.9,15.41,7.9ZM10.63,21.22c.65,14.86,1.28,29.36,1.95,43.86.1,2.29,1.43,3.18,3.69,3.17,8.24-.06,16.49,0,24.73,0,3.24,0,4-.7,4.15-4.09q.91-19.9,1.76-39.81c0-1,0-2.05,0-3.1Zm41.83-5.67c-.88-2.47-2.58-2.45-4.26-2.45H18.43c-3.28,0-6.56,0-9.83,0-1.51,0-3,.28-3.1,2.43ZM21.06,7.68H36.4l.13-.92c-3.41-2.93-7.76-1-11.63-1.45C23.2,5.1,21.52,5.36,21.06,7.68Z"/><path class="cls-1" d="M31.5,44.55V56.76c0,1.86-.49,3.52-2.68,3.52s-2.67-1.68-2.67-3.53q0-12.21,0-24.42c0-1.76.54-3.31,2.54-3.38,2.18-.08,2.79,1.51,2.8,3.4C31.51,36.42,31.5,40.49,31.5,44.55Z"/><path class="cls-1" d="M21,44.71c0,4,0,8,0,11.94,0,1.83-.34,3.61-2.53,3.63s-2.83-1.71-2.83-3.68V32.72c0-1.92.43-3.78,2.75-3.77S21,30.88,21,32.77C20.94,36.75,21,40.73,21,44.71Z"/><path class="cls-1" d="M36.71,44.53c0-4,0-8,0-11.94,0-1.83.35-3.6,2.54-3.64s2.82,1.75,2.82,3.69c0,8,0,15.92,0,23.88,0,1.95-.46,3.75-2.75,3.76s-2.62-1.91-2.62-3.81C36.72,52.49,36.71,48.51,36.71,44.53Z"/></svg>