<svg id="Layer_1" data-name="Layer 1" xmlns="http://www.w3.org/2000/svg" viewBox="0 0 28.59 28.59"><defs><style>.cls-1{fill:#ca9e67;}.cls-2{fill:#f6f6f6;}</style></defs><circle class="cls-1" cx="14.3" cy="14.3" r="14.08"/><path class="cls-2" d="M11,7.23a6.13,6.13,0,0,1,.26-.83A1.85,1.85,0,0,1,13,5.3c.72,0,1.43,0,2.15,0,1.47,0,2.05.44,2.42,1.94.66,0,1.35,0,2,0A1.84,1.84,0,0,1,21.36,9a1.25,1.25,0,0,1-.89,1.36c-.36.11-.41.28-.42.6q-.19,4.79-.41,9.57a8.27,8.27,0,0,1-.12,1.23,1.85,1.85,0,0,1-1.79,1.53q-3.44,0-6.85,0a1.83,1.83,0,0,1-1.83-1.72c-.12-1.19-.15-2.38-.21-3.58-.1-2.3-.2-4.62-.29-6.94,0-.35,0-.58-.47-.7a1.27,1.27,0,0,1-.83-1.52,1.87,1.87,0,0,1,1.6-1.57c.37,0,.74,0,1.11,0ZM9.83,10.5c.16,3.64.32,7.2.48,10.75,0,.56.35.78.91.78,2,0,4,0,6.06,0,.8,0,1-.17,1-1q.22-4.89.43-9.76v-.76ZM20.09,9.11c-.21-.61-.63-.6-1-.6H9.34c-.37,0-.74.07-.76.59Zm-7.7-1.93h3.76l0-.23c-.84-.71-1.91-.24-2.86-.35C12.92,6.55,12.5,6.61,12.39,7.18Z"/><path class="cls-2" d="M15,16.22v3c0,.46-.12.87-.66.87s-.65-.42-.65-.87v-6c0-.43.13-.81.62-.83s.69.37.69.84Z"/><path class="cls-2" d="M12.38,16.26v2.93c0,.44-.09.88-.62.89s-.7-.42-.7-.91V13.32c0-.47.11-.93.68-.93s.64.48.64.94C12.36,14.31,12.38,15.28,12.38,16.26Z"/><path class="cls-2" d="M16.23,16.21V13.29c0-.45.09-.89.62-.9s.69.43.69.91v5.85c0,.48-.11.92-.67.93s-.64-.47-.64-.94Z"/></svg>