<svg id="Layer_1" data-name="Layer 1" xmlns="http://www.w3.org/2000/svg" viewBox="0 0 31.24 31.27"><defs><style>.cls-1{fill:#ca9e67;}</style></defs><path class="cls-1" d="M31.24,15.65A15.62,15.62,0,1,1,15.67,0,15.66,15.66,0,0,1,31.24,15.65ZM15.6,1.44A14.2,14.2,0,1,0,29.82,15.65,14.26,14.26,0,0,0,15.6,1.44Z"/><path class="cls-1" d="M23.49,8.65a5.74,5.74,0,0,1-.28.56c-1.66,2.74-3.31,5.48-5,8.2a2.42,2.42,0,0,1-.77.79c-2.75,1.69-5.52,3.35-8.28,5-.4.25-.89.53-1.19,0a1.32,1.32,0,0,1,.08-1.14q2.47-4.2,5-8.36a2.07,2.07,0,0,1,.68-.67Q18,10.51,22.25,8C22.91,7.59,23.49,7.86,23.49,8.65Zm-3,2.25-.13-.13c-2,1.18-3.91,2.35-5.86,3.55a1.3,1.3,0,0,0-.37.46L11,20a4.08,4.08,0,0,0-.21.54c2.05-1.24,4-2.39,5.88-3.56a1,1,0,0,0,.33-.3Q18.74,13.81,20.49,10.9Z"/><path class="cls-1" d="M15.64,3.59a1.29,1.29,0,1,1,0,2.58,1.29,1.29,0,0,1,0-2.58Z"/><path class="cls-1" d="M27.67,15.65a1.27,1.27,0,0,1-1.31,1.27,1.29,1.29,0,1,1,1.31-1.27Z"/><path class="cls-1" d="M15.64,27.69a1.3,1.3,0,1,1,1.27-1.32A1.3,1.3,0,0,1,15.64,27.69Z"/><path class="cls-1" d="M6.16,15.61a1.29,1.29,0,1,1-1.32-1.27A1.27,1.27,0,0,1,6.16,15.61Z"/></svg>