<svg id="Layer_1" data-name="Layer 1" xmlns="http://www.w3.org/2000/svg" viewBox="0 0 31.24 31.27"><defs><style>.cls-1{fill:none;stroke:#ca9e67;stroke-miterlimit:10;stroke-width:1.5px;}</style></defs><path class="cls-1" d="M21.31,30.11V23.78c0-2.55-1.34-3.91-3.87-3.92-1.28,0-2.57,0-3.85,0a3.45,3.45,0,0,0-3.66,3.75v6.5H7.55c-.66,0-1.33,0-2,0A3.37,3.37,0,0,1,2,26.61C1.92,22.07,2,17.53,2,13a3.48,3.48,0,0,1,1.4-2.78c3.4-2.78,6.78-5.56,10.19-8.31a3.23,3.23,0,0,1,4.13,0c3.43,2.76,6.84,5.56,10.25,8.36a3.7,3.7,0,0,1,1.37,3c0,4.36,0,8.72,0,13.08a3.46,3.46,0,0,1-3.74,3.75C24.17,30.12,22.79,30.11,21.31,30.11Z"/></svg>