<svg id="Layer_1" data-name="Layer 1" xmlns="http://www.w3.org/2000/svg" viewBox="0 0 31.24 31.27"><defs><style>.cls-1,.cls-2{fill:#ca9e67;}.cls-2{stroke:#ca9e67;stroke-miterlimit:10;}</style></defs><path class="cls-1" d="M15.2,16.81,9.38,13.62,15.2,5.85Z"/><path class="cls-1" d="M21.85,13.61,16.08,16.8V5.91Z"/><path class="cls-1" d="M21.6,17.55l-4.35,2.39c-.49.27-1,.55-1.47.8a.41.41,0,0,1-.34,0q-2.88-1.57-5.75-3.16l-.06-.05c.83-.45,1.65-.91,2.48-1.35a.34.34,0,0,1,.29,0l2.86,1.57a.65.65,0,0,0,.73,0c.94-.53,1.89-1,2.84-1.55a.41.41,0,0,1,.32,0C20,16.64,20.75,17.08,21.6,17.55Z"/><path class="cls-1" d="M20.94,18.92l-4.86,6.5-.06,0V24.24c0-.81,0-1.62,0-2.42a.36.36,0,0,1,.15-.3c1.54-.87,3.09-1.72,4.63-2.57Z"/><path class="cls-1" d="M15.12,25.37l-4.8-6.43a1.26,1.26,0,0,1,.25.11L15,21.48c.09.06.2.18.2.27,0,1.2,0,2.4,0,3.59Z"/><path class="cls-1" d="M31.24,15.65A15.62,15.62,0,1,1,15.67,0,15.66,15.66,0,0,1,31.24,15.65ZM15.6,1.44A14.2,14.2,0,1,0,29.82,15.65,14.26,14.26,0,0,0,15.6,1.44Z"/><path class="cls-2" d="M6.45,3.65l-1.08,0H1.8c-.19,0-.38,0-.38-.26s.18-.25.37-.25l4.77,0c.29,0,.36.06.36.36,0,1.59,0,3.18,0,4.77,0,.18,0,.36-.25.36s-.26-.19-.26-.38V4A2.61,2.61,0,0,1,6.45,3.65Z"/><path class="cls-2" d="M24.79,27.07l1.08,0h3.57c.19,0,.38,0,.38.26s-.19.26-.37.26l-4.77,0c-.29,0-.36-.06-.36-.36,0-1.59,0-3.18,0-4.77,0-.18,0-.36.25-.36s.26.19.26.38v4.29A2.61,2.61,0,0,1,24.79,27.07Z"/></svg>