<svg id="Layer_1" data-name="Layer 1" xmlns="http://www.w3.org/2000/svg" viewBox="0 0 31.24 31.27"><defs><style>.cls-1{fill:#ca9e67;stroke:#ca9e67;stroke-miterlimit:10;stroke-width:0.55px;}</style></defs><path class="cls-1" d="M15.63,1H27.05c2.13,0,3.21,1.06,3.21,3.18v22.9c0,2.12-1.07,3.19-3.2,3.19H4.16C2.07,30.27,1,29.19,1,27.13v-23A2.82,2.82,0,0,1,4.14,1C8,1,11.8,1,15.63,1Zm-.05,28.16c3.81,0,7.61,0,11.42,0,1.63,0,2.15-.51,2.15-2.13V4.28c0-1.68-.5-2.18-2.19-2.18H4.28c-1.69,0-2.19.5-2.19,2.18V27c0,1.62.52,2.13,2.15,2.13C8,29.17,11.8,29.16,15.58,29.16Z"/><path class="cls-1" d="M16.19,16.2v2c0,1.92,0,3.85,0,5.77,0,.42-.05.87-.54.88s-.6-.45-.6-.89c0-2.54,0-5.07,0-7.72H7.37c-.43,0-.92,0-.93-.56s.47-.57.91-.57h7.7v-.83c0-2.29,0-4.58,0-6.87,0-.44,0-.92.58-.91s.56.49.56.93c0,2.26,0,4.53,0,6.8v.88H23.9c.45,0,.91,0,.9.59s-.45.54-.88.54H16.19Z"/></svg>