<svg id="Layer_1" data-name="Layer 1" xmlns="http://www.w3.org/2000/svg" viewBox="0 0 37.76 37.79"><defs><style>.cls-1{fill:#ca9e67;}</style></defs><path class="cls-1" d="M18.51,12.79l-5-3,5-7.32Z"/><path class="cls-1" d="M24.26,9.78l-5,3V2.52Z"/><path class="cls-1" d="M24,13.49l-3.76,2.25c-.42.25-.84.51-1.27.75a.33.33,0,0,1-.29,0c-1.66-1-3.31-2-5-3l0,0c.71-.43,1.42-.86,2.14-1.28a.3.3,0,0,1,.24,0c.83.49,1.66,1,2.48,1.48a.51.51,0,0,0,.63,0c.81-.5,1.63-1,2.45-1.46a.31.31,0,0,1,.28,0C22.62,12.63,23.31,13.05,24,13.49Z"/><path class="cls-1" d="M23.48,14.78,19.27,20.9l-.05,0V19.79c0-.76,0-1.52,0-2.28a.41.41,0,0,1,.13-.29l4-2.41Z"/><path class="cls-1" d="M18.45,20.85,14.3,14.79l.22.11,3.8,2.29a.38.38,0,0,1,.17.26c0,1.13,0,2.25,0,3.38Z"/><path class="cls-1" d="M17,24l-.13.22L14.6,28.16l-.12.21h-1l-2.39-4.13L11,24v0H12.1v0l.08.13.42.77L14,27.35l1.75-3.17.1-.18,0,0H17Z"/><path class="cls-1" d="M18.45,28.43a.5.5,0,1,1,.53-.49A.47.47,0,0,1,18.45,28.43Z"/><path class="cls-1" d="M21,28.37V24h2.83c2,0,3,.73,3,2.12s-1,2.26-3,2.26Zm1-3.6v2.79h1.79c1.24,0,1.89-.49,1.89-1.43s-.65-1.36-1.89-1.36Z"/></svg>