<svg id="Layer_1" data-name="Layer 1" xmlns="http://www.w3.org/2000/svg" viewBox="0 0 31.24 31.27"><defs><style>.cls-1{fill:#ca9e67;}</style></defs><path class="cls-1" d="M27.6,27.9l-.68-.18-4.56-1.27a1.18,1.18,0,0,0-1.14.22c-1,.77-2,1.51-3.09,2.24a1.31,1.31,0,0,1-.67.2c-1.19,0-2.39,0-3.58,0a1.48,1.48,0,0,1-.7-.22c-1-.75-2.1-1.51-3.14-2.28a1,1,0,0,0-1-.18L4,27.85c-.59.17-.9,0-1.07-.57-.52-1.77-1-3.55-1.54-5.33a1,1,0,0,1,.06-.56Q2.17,18.92,3,16.46A2,2,0,0,0,3,15,13.26,13.26,0,0,1,2.5,13C2,10.79,1.55,8.64,1.09,6.49a1.06,1.06,0,0,1,0-.53c.32-1,.66-2,1-3.07.25-.75.53-.89,1.29-.61l7.75,2.9a4,4,0,0,0,1.19.22c1.92,0,3.83,0,5.74,0A7.21,7.21,0,0,0,21,4.89c2.3-.9,4.62-1.75,6.93-2.62.75-.27,1-.13,1.28.63s.47,1.56.77,2.31a3.45,3.45,0,0,1,.11,2.13c-.57,2.51-1.1,5-1.65,7.56a.15.15,0,0,1,0,.07c-.4.59-.14,1.15.05,1.73.51,1.57,1,3.15,1.51,4.73a1.11,1.11,0,0,1,0,.6c-.5,1.76-1,3.51-1.52,5.27A.72.72,0,0,1,27.6,27.9ZM4.35,14.67l.16,0L9.44,13.3a1,1,0,0,0,.37-.16c1.15-.89,2.3-1.78,3.44-2.69.32-.26.31-.46,0-.7-.74-.53-1.5-1.05-2.25-1.57L3.8,3.27c-.34-.24-.55-.17-.69.21-.37,1-.74,2-1.08,3A1.22,1.22,0,0,0,2,7c.26,1.09.55,2.17.83,3.25.34,1.34.69,2.68,1,4C3.93,14.52,4,14.71,4.35,14.67Zm22.6,0c.37,0,.42-.19.48-.41.62-2.42,1.25-4.83,1.87-7.24a1.06,1.06,0,0,0,0-.53c-.34-1-.69-1.94-1-2.9-.2-.55-.37-.6-.86-.26L18.16,9.68c-.45.32-.46.5,0,.84l3.24,2.54a1.49,1.49,0,0,0,.49.24c1.32.37,2.64.72,4,1.08ZM15.65,26.47h1.89c.26,0,.49-.09.45-.42s-.11-.9-.18-1.35a.83.83,0,0,0-.74-.65H14.19a.85.85,0,0,0-.76.62c0,.39-.1.77-.13,1.16s0,.64.57.65Zm-2.39-6.75a.45.45,0,0,0,0-.11c-.23-.48-.45-.95-.7-1.41a.41.41,0,0,0-.38-.13,16.57,16.57,0,0,0-1.62.71.37.37,0,0,0,.06.68c.72.24,1.45.45,2.19.64A.36.36,0,0,0,13.26,19.72Zm5.15.4h.1c.72-.22,1.45-.42,2.17-.66a.45.45,0,0,0,.23-.33.42.42,0,0,0-.2-.32c-.51-.26-1-.49-1.56-.71a.37.37,0,0,0-.49.2c-.21.42-.42.84-.6,1.28A.37.37,0,0,0,18.41,20.12Z"/></svg>